# xmcd
# 
# Track frame offsets:
#     150
#     22650
#     37650
#     52350
#     69000
#     88350
#     106650
#     126900
#     143925
#     156900
#     170250
#     184967
#     204167
#     223592
#     240017
#     257567
#     275417
#     294242
#     316667
# 
# Disc length: 4528
# 
# Revision: 5
# Processed by: cddbd v1.5.2PL0 Copyright (c) Steve Scherf et al.
# Submitted via: fre:ac v1.0.31
# 
DISCID=fb11ae13
DTITLE=Various Artist - EXIT TUNES PRESENTS GUMism from Megpoid
DYEAR=2011
DGENRE=Vocaloid
TTITLE0=Dios/シグナルP feat.GUMI - 会いたい
TTITLE1=ゆちゃP feat.GUMI - ポーカーフェイス
TTITLE2=monaca:factory(10日P) feat.GUMI - ロゼッタ
TTITLE3=YM feat.GUMI - 十面相
TTITLE4=yuukiss feat. GUMI - Prayer Will Live (GUMism edit)
TTITLE5=takamatt feat.GUMI - Just a game
TTITLE6=デッドボールP feat.GUMI - 恋をしたい、もう一度
TTITLE7=のぼる↑ feat.GUMI - 恋はきっと急上昇☆
TTITLE8=Bumpyうるし feat.GUMI - わんわんお！
TTITLE9=buzzG feat.GUMI - AGAINST
TTITLE10=Junky feat.GUMI - For my soul
TTITLE11=ダルビッシュP×Silent Symphonia feat.GUMI - Holography
TTITLE12=ORYO(FAULHEIT) feat.GUMI - モノトーンコレクター
TTITLE13=otetsu feat.GUMI - カーニバル
TTITLE14=mothy_悪ノP feat.GUMI - 最後のリボルバー
TTITLE15=ラマーズP feat.GUMI - さよなら。
TTITLE16=ライブP feat.GUMI - グリーンストレート
TTITLE17=cosMo@暴走P feat.GUMI - 家出少年と迷子少女
TTITLE18=TOKOTOKO(西沢さんP) feat.GUMI - 泣き虫アンサンブル
EXTD=YEAR: 2011
EXTT0=
EXTT1=
EXTT2=
EXTT3=
EXTT4=
EXTT5=
EXTT6=
EXTT7=
EXTT8=
EXTT9=
EXTT10=
EXTT11=
EXTT12=
EXTT13=
EXTT14=
EXTT15=
EXTT16=
EXTT17=
EXTT18=
PLAYORDER=
